<svg width="28" height="28" viewBox="0 0 28 28" fill="none" xmlns="http://www.w3.org/2000/svg">
<path d="M14 16.9388C15.623 16.9388 16.9388 15.623 16.9388 14C16.9388 12.377 15.623 11.0612 14 11.0612C12.377 11.0612 11.0612 12.377 11.0612 14C11.0612 15.623 12.377 16.9388 14 16.9388Z" stroke="#EEECF1" stroke-width="2" stroke-linecap="round" stroke-linejoin="round"/>
<path d="M21.249 16.9388C21.1186 17.2342 21.0797 17.562 21.1373 17.8798C21.1949 18.1975 21.3464 18.4908 21.5722 18.7216L21.631 18.7804C21.8132 18.9624 21.9577 19.1784 22.0563 19.4163C22.1549 19.6541 22.2056 19.9091 22.2056 20.1665C22.2056 20.424 22.1549 20.6789 22.0563 20.9168C21.9577 21.1546 21.8132 21.3707 21.631 21.5527C21.4491 21.7348 21.233 21.8793 20.9951 21.9779C20.7573 22.0765 20.5024 22.1273 20.2449 22.1273C19.9874 22.1273 19.7325 22.0765 19.4946 21.9779C19.2568 21.8793 19.0407 21.7348 18.8588 21.5527L18.8 21.4939C18.5691 21.268 18.2759 21.1166 17.9581 21.0589C17.6404 21.0013 17.3126 21.0402 17.0171 21.1706C16.7274 21.2948 16.4803 21.501 16.3063 21.7638C16.1322 22.0266 16.0388 22.3346 16.0375 22.6498V22.8163C16.0375 23.3359 15.8311 23.8343 15.4637 24.2017C15.0963 24.5691 14.598 24.7755 14.0784 24.7755C13.5588 24.7755 13.0604 24.5691 12.693 24.2017C12.3256 23.8343 12.1192 23.3359 12.1192 22.8163V22.7282C12.1116 22.4039 12.0066 22.0895 11.818 21.8257C11.6293 21.5619 11.3656 21.3609 11.0612 21.249C10.7658 21.1186 10.438 21.0797 10.1202 21.1373C9.80246 21.1949 9.50923 21.3464 9.27837 21.5722L9.21959 21.631C9.03763 21.8132 8.82156 21.9577 8.58372 22.0563C8.34588 22.1549 8.09093 22.2056 7.83347 22.2056C7.576 22.2056 7.32106 22.1549 7.08322 22.0563C6.84538 21.9577 6.6293 21.8132 6.44734 21.631C6.26519 21.4491 6.12068 21.233 6.02208 20.9951C5.92349 20.7573 5.87274 20.5024 5.87274 20.2449C5.87274 19.9874 5.92349 19.7325 6.02208 19.4946C6.12068 19.2568 6.26519 19.0407 6.44734 18.8588L6.50612 18.8C6.73195 18.5691 6.88344 18.2759 6.94106 17.9581C6.99868 17.6404 6.95978 17.3126 6.82939 17.0171C6.70521 16.7274 6.49902 16.4803 6.23621 16.3063C5.97339 16.1322 5.66542 16.0388 5.3502 16.0376H5.18367C4.66406 16.0376 4.16574 15.8311 3.79832 15.4637C3.4309 15.0963 3.22449 14.598 3.22449 14.0784C3.22449 13.5588 3.4309 13.0604 3.79832 12.693C4.16574 12.3256 4.66406 12.1192 5.18367 12.1192H5.27183C5.59607 12.1116 5.91053 12.0066 6.17433 11.818C6.43813 11.6293 6.63907 11.3656 6.75102 11.0612C6.88142 10.7658 6.92031 10.438 6.8627 10.1202C6.80508 9.80246 6.65358 9.50924 6.42775 9.27837L6.36898 9.21959C6.18682 9.03764 6.04231 8.82156 5.94372 8.58372C5.84512 8.34588 5.79437 8.09094 5.79437 7.83347C5.79437 7.576 5.84512 7.32106 5.94372 7.08322C6.04231 6.84538 6.18682 6.6293 6.36898 6.44735C6.55093 6.26519 6.76701 6.12068 7.00485 6.02209C7.24269 5.92349 7.49763 5.87274 7.7551 5.87274C8.01257 5.87274 8.26751 5.92349 8.50535 6.02209C8.74319 6.12068 8.95927 6.26519 9.14122 6.44735L9.2 6.50612C9.43087 6.73195 9.7241 6.88345 10.0419 6.94107C10.3596 6.99868 10.6874 6.95979 10.9829 6.82939H11.0612C11.351 6.70521 11.5981 6.49903 11.7721 6.23621C11.9462 5.9734 12.0396 5.66542 12.0408 5.3502V5.18367C12.0408 4.66407 12.2472 4.16574 12.6146 3.79832C12.9821 3.4309 13.4804 3.22449 14 3.22449C14.5196 3.22449 15.0179 3.4309 15.3854 3.79832C15.7528 4.16574 15.9592 4.66407 15.9592 5.18367V5.27184C15.9604 5.58706 16.0538 5.89503 16.2279 6.15784C16.4019 6.42066 16.649 6.62684 16.9388 6.75102C17.2342 6.88142 17.562 6.92032 17.8798 6.8627C18.1975 6.80508 18.4908 6.65359 18.7216 6.42775L18.7804 6.36898C18.9624 6.18682 19.1784 6.04231 19.4163 5.94372C19.6541 5.84512 19.9091 5.79438 20.1665 5.79438C20.424 5.79438 20.6789 5.84512 20.9168 5.94372C21.1546 6.04231 21.3707 6.18682 21.5527 6.36898C21.7348 6.55093 21.8793 6.76701 21.9779 7.00485C22.0765 7.24269 22.1273 7.49763 22.1273 7.7551C22.1273 8.01257 22.0765 8.26751 21.9779 8.50535C21.8793 8.74319 21.7348 8.95927 21.5527 9.14122L21.4939 9.2C21.268 9.43087 21.1166 9.7241 21.0589 10.0419C21.0013 10.3596 21.0402 10.6874 21.1706 10.9829V11.0612C21.2948 11.351 21.501 11.5981 21.7638 11.7721C22.0266 11.9462 22.3346 12.0396 22.6498 12.0408H22.8163C23.3359 12.0408 23.8343 12.2472 24.2017 12.6146C24.5691 12.9821 24.7755 13.4804 24.7755 14C24.7755 14.5196 24.5691 15.0179 24.2017 15.3854C23.8343 15.7528 23.3359 15.9592 22.8163 15.9592H22.7282C22.4129 15.9604 22.105 16.0538 21.8422 16.2279C21.5793 16.4019 21.3732 16.649 21.249 16.9388V16.9388Z" stroke="#EEECF1" stroke-width="2" stroke-linecap="round" stroke-linejoin="round"/>
</svg>
